<svg width="32" height="32" viewBox="0 0 32 32" fill="none" xmlns="http://www.w3.org/2000/svg">
<path d="M16 28C12.9333 28 10.2613 26.9831 7.984 24.9493C5.70578 22.9164 4.4 20.3778 4.06667 17.3333H6.8C7.11111 19.6444 8.13867 21.5556 9.88267 23.0667C11.6276 24.5778 13.6667 25.3333 16 25.3333C18.6 25.3333 20.8053 24.4276 22.616 22.616C24.4276 20.8053 25.3333 18.6 25.3333 16C25.3333 13.4 24.4276 11.1942 22.616 9.38267C20.8053 7.572 18.6 6.66667 16 6.66667C14.4667 6.66667 13.0333 7.02222 11.7 7.73333C10.3667 8.44444 9.24444 9.42222 8.33333 10.6667H12V13.3333H4V5.33333H6.66667V8.46667C7.8 7.04444 9.18356 5.94444 10.8173 5.16667C12.4502 4.38889 14.1778 4 16 4C17.6667 4 19.228 4.31644 20.684 4.94933C22.1391 5.58311 23.4058 6.43867 24.484 7.516C25.5613 8.59422 26.4169 9.86089 27.0507 11.316C27.6836 12.772 28 14.3333 28 16C28 17.6667 27.6836 19.2276 27.0507 20.6827C26.4169 22.1387 25.5613 23.4053 24.484 24.4827C23.4058 25.5609 22.1391 26.4169 20.684 27.0507C19.228 27.6836 17.6667 28 16 28ZM19.7333 21.6L14.6667 16.5333V9.33333H17.3333V15.4667L21.6 19.7333L19.7333 21.6Z" fill="#471515"/>
</svg>
